<svg id="Layer_1" data-name="Layer 1" xmlns="http://www.w3.org/2000/svg" viewBox="0 0 286 286"><defs><style>.cls-1{fill:none;}.cls-2{fill:#ffd138;}.cls-3{fill:#3f3f40;}.cls-4{fill:#f3714e;}.cls-5{fill:#488ed8;}.cls-6{fill:#4d8dcd;}.cls-7{fill:#3a6a9a;}.cls-8{fill:#cfdbf0;}.cls-9{fill:#bf9d2b;}</style></defs><title>Untitled-1</title><rect class="cls-1" x="0.07" y="0.07" width="285.86" height="285.86"/><circle class="cls-2" cx="217.49" cy="196.34" r="3.47" transform="translate(-3.42 3.85) rotate(-1.01)"/><polygon class="cls-2" points="276.56 152.26 268.88 150.61 268.88 150.61 272.57 159.03 276.56 152.26"/><polygon class="cls-2" points="247.05 122.26 242.6 128.74 242.6 128.74 251.8 128.52 247.05 122.26"/><rect class="cls-3" x="227.36" y="175.71" width="6.19" height="6.19" transform="translate(116.76 447.43) rotate(-104.87)"/><rect class="cls-3" x="210.56" y="112.44" width="6.19" height="6.19" transform="translate(156.81 351.69) rotate(-104.87)"/><polygon class="cls-4" points="227.82 144.86 225.69 141.31 227.7 137.69 231.84 137.62 233.97 141.17 231.97 144.79 227.82 144.86"/><polygon class="cls-4" points="247.04 196.24 244.91 192.69 246.92 189.06 251.06 188.99 253.2 192.54 251.19 196.17 247.04 196.24"/><path class="cls-2" d="M264.53,136.52a0.91,0.91,0,0,1,0-1.66l9.41-4a0.91,0.91,0,0,1,.7,1.67l-9.41,4A0.9,0.9,0,0,1,264.53,136.52Z"/><path class="cls-2" d="M259.65,173.24a0.91,0.91,0,0,1,1.31-1l9,4.89a0.91,0.91,0,0,1-.87,1.59l-9-4.89A0.9,0.9,0,0,1,259.65,173.24Z"/><path class="cls-2" d="M238,116.22a0.91,0.91,0,0,1-.93-1.38l5.47-8.63a0.91,0.91,0,0,1,1.53,1l-5.47,8.63A0.9,0.9,0,0,1,238,116.22Z"/><circle class="cls-2" cx="48.79" cy="157.35" r="2.62" transform="translate(-2.76 0.88) rotate(-1.01)"/><polygon class="cls-2" points="71.47 119.17 66.25 113.3 66.25 113.3 64.26 122.29 71.47 119.17"/><rect class="cls-3" x="25.31" y="174.75" width="6.19" height="6.19" transform="translate(-136.2 250.92) rotate(-104.87)"/><rect class="cls-5" x="37.42" y="139.58" width="6.19" height="6.19" transform="translate(110.46 11.89) rotate(43.99)"/><path class="cls-2" d="M9.72,157.29a0.91,0.91,0,0,1,.58-1.56l10.2-.52a0.91,0.91,0,0,1,.09,1.81l-10.2.52A0.9,0.9,0,0,1,9.72,157.29Z"/><circle class="cls-2" cx="15.45" cy="129.04" r="3.47" transform="translate(-2.27 0.29) rotate(-1.01)"/><circle class="cls-3" cx="61.94" cy="139.53" r="2.62" transform="translate(-2.44 1.11) rotate(-1.01)"/><circle class="cls-2" cx="54.03" cy="196.34" r="2.62" transform="translate(-3.44 0.98) rotate(-1.01)"/><circle class="cls-2" cx="73.53" cy="174.54" r="2.62" transform="matrix(1, -0.02, 0.02, 1, -3.06, 1.32)"/><path class="cls-4" d="M40.32,116.79l0,0,0-.07a3,3,0,0,0-4.89-3.4l-0.05.06a0.95,0.95,0,0,1-1.71-.39,0.93,0.93,0,0,1,.16-0.71,1,1,0,0,0-1.66-1.18,3,3,0,0,0,4.71,3.65l0.12-.14a0.95,0.95,0,1,1,1.55,1.1l0,0.07a3,3,0,0,0,3.73,4.32h0a3,3,0,0,0,1.08-.82l0.11-.12a0.95,0.95,0,1,1,1.55,1.1,1,1,0,0,0,1.66,1.18l0.11-.17a3,3,0,0,0-4.89-3.4l-0.05.06A0.95,0.95,0,1,1,40.32,116.79Z"/><path class="cls-5" d="M244.77,158.1v0l0-.08A3,3,0,0,0,239,156.5l0,0.08a0.95,0.95,0,0,1-1.74.24,0.93,0.93,0,0,1-.1-0.72,1,1,0,0,0-2-.52,3,3,0,0,0,5.69,1.77,1,1,0,0,0,.06-0.17,0.95,0.95,0,0,1,1.83.48s0,0.05,0,.08a3,3,0,0,0,5,2.74h0a3,3,0,0,0,.72-1.14,1,1,0,0,0,.06-0.15,0.95,0.95,0,1,1,1.83.48,1,1,0,0,0,2,.52q0-.1,0-0.2a3,3,0,0,0-5.77-1.48l0,0.08A0.95,0.95,0,1,1,244.77,158.1Z"/><path class="cls-6" d="M138.45,171.31A33.31,33.31,0,0,1,105.18,138V97.78a33.28,33.28,0,0,1,66.55,0V138A33.31,33.31,0,0,1,138.45,171.31Zm0-96.81a23.3,23.3,0,0,0-23.28,23.28V138a23.28,23.28,0,1,0,46.55,0V97.78A23.3,23.3,0,0,0,138.45,74.5Z"/><circle class="cls-5" cx="138.73" cy="152.07" r="51.85"/><circle class="cls-7" cx="138.73" cy="152.07" r="36.96"/><path class="cls-3" d="M150.44,175.91l-5.87-27.85a11,11,0,1,0-12,0l-5.87,27.85h23.78Z"/><path class="cls-8" d="M138.45,95.71a1.5,1.5,0,0,1-1.5-1.5V85a1.5,1.5,0,0,1,3,0v9.19A1.5,1.5,0,0,1,138.45,95.71Z"/><path class="cls-8" d="M180.68,109.87a1.5,1.5,0,0,1-1.06-2.56l6.5-6.5a1.5,1.5,0,1,1,2.12,2.12l-6.5,6.5A1.5,1.5,0,0,1,180.68,109.87Z"/><path class="cls-8" d="M189.15,200a1.5,1.5,0,0,1-1.06-.44l-6.5-6.5a1.5,1.5,0,0,1,2.12-2.12l6.5,6.5A1.5,1.5,0,0,1,189.15,200Z"/><path class="cls-8" d="M141.25,221a1.5,1.5,0,0,1-1.5-1.5v-9.19a1.5,1.5,0,0,1,3,0v9.19A1.5,1.5,0,0,1,141.25,221Z"/><path class="cls-8" d="M92.52,202a1.5,1.5,0,0,1-1.06-2.56l6.5-6.5a1.5,1.5,0,0,1,2.12,2.12l-6.5,6.5A1.5,1.5,0,0,1,92.52,202Z"/><path class="cls-8" d="M80.71,154.07H71.53a1.5,1.5,0,0,1,0-3h9.19A1.5,1.5,0,0,1,80.71,154.07Z"/><path class="cls-8" d="M97,111.85a1.49,1.49,0,0,1-1.06-.44l-6.5-6.5a1.5,1.5,0,0,1,2.12-2.12l6.5,6.5A1.5,1.5,0,0,1,97,111.85Z"/><polygon class="cls-2" points="166.05 157.59 140.86 157.59 140.86 168.94 144.44 168.94 144.44 175.9 150.56 175.9 150.56 168.94 153.04 168.94 153.04 175.9 159.15 175.9 159.15 168.94 184.28 168.94 184.28 157.59 166.05 157.59"/><polygon class="cls-9" points="185.14 163.25 140.86 163.25 140.86 168.94 144.44 168.94 144.44 175.9 150.56 175.9 150.56 168.94 153.04 168.94 153.04 175.9 159.15 175.9 159.15 168.94 185.14 168.94 185.14 163.25"/><path class="cls-2" d="M199.14,146.31a16.94,16.94,0,1,0,16.94,16.94A16.94,16.94,0,0,0,199.14,146.31Zm0,23.75a6.8,6.8,0,1,1,6.8-6.8A6.8,6.8,0,0,1,199.14,170.05Z"/></svg>