<svg id="Layer_1" data-name="Layer 1" xmlns="http://www.w3.org/2000/svg" viewBox="0 0 286 286"><defs><style>.cls-1{fill:#fcf4e3;}.cls-2{fill:#fff;}.cls-3{fill:none;}.cls-4{fill:#fed149;}.cls-5{fill:#f8a995;}.cls-6{fill:#fedb80;}.cls-7{fill:#f3714e;}.cls-8{fill:#f6704d;}</style></defs><title>Untitled-1</title><path class="cls-1" d="M259.19,119.4s-3.77-7.18-7.54-7.18H129.58a5.06,5.06,0,0,0-4.24,2.3h0l-3.4,5,2.57,1.19v82.4a5.07,5.07,0,0,0,5.07,5.07H251.64a5.07,5.07,0,0,0,5.07-5.07V119.73Z"/><rect class="cls-2" x="121.18" y="117.16" width="138.87" height="100.83" rx="5" ry="5"/><path class="cls-1" d="M244.63,177.06l1.61-3.7-2.44-5.67,2.45-5.67-2.44-5.67,2.45-5.67L243.8,145l2.45-5.67-3.12-7.23L240,139.36l2.44,5.67L240,150.7l2.44,5.67L240,162l2.44,5.67L240,173.36l1.81,4.19c-2.51.39-5.25,0.7-8.17,0.89l1.87-4.33-3.12-7.23-3.12,7.23,1.92,4.46a94,94,0,0,1-14.81-.59l-0.7-1.63,2.45-5.67L215.68,165l2.45-5.67-2.45-5.67,2.45-5.67L215,140.78,211.88,148l2.44,5.67-2.44,5.67,2.44,5.67-2.44,5.67,2.44,5.67-0.56,1.29A95.36,95.36,0,0,1,201.56,175l-2.17-5,2.45-5.67-3.12-7.23-3.12,7.23L198,170l-1.29,3.46a130.23,130.23,0,0,0-23.75-6V150h6V134H167v6h-6v-6H149v6h-5v-6H132v16h6v18a95.58,95.58,0,0,0-17,4.62V218H260V172.57A70,70,0,0,1,244.63,177.06ZM149,166.55v-6.63a6,6,0,0,1,12,0v6.47A108.44,108.44,0,0,0,149,166.55Z"/><rect class="cls-3" x="0.07" y="0.07" width="285.86" height="285.86"/><path class="cls-2" d="M47.88,186.79a2.85,2.85,0,1,0-5.7,0v5.33h5.7v-5.33Z"/><path class="cls-2" d="M36.66,181.85H33.79v-7.48h5.74v2.87h2.64v-2.87H47.9v2.87h2.64v-2.87h5.74v7.48H53.41V192.3a38.63,38.63,0,0,1,12,3.93c18.73,9.65,20.41-9.82,38.62-1.16a40.85,40.85,0,0,0-7.46-45H37.09a40.86,40.86,0,0,0-6.89,46.19,40.46,40.46,0,0,1,6.46-2.64V181.85Z"/><path class="cls-4" d="M66.84,219A40.88,40.88,0,0,0,104,195.07c-18.21-8.66-19.89,10.81-38.62,1.16a38.63,38.63,0,0,0-12-3.93V181.85h2.87v-7.48H50.54v2.87H47.9v-2.87H42.17v2.87H39.53v-2.87H33.79v7.48h2.87v11.78a40.46,40.46,0,0,0-6.46,2.64A40.88,40.88,0,0,0,66.84,219ZM42.18,186.79a2.85,2.85,0,1,1,5.7,0v5.33h-5.7v-5.33Z"/><path class="cls-5" d="M229.32,132.06a0.63,0.63,0,1,1,.72-0.53A0.63,0.63,0,0,1,229.32,132.06Zm1.11,0.54,0.94-1s-4.48-6.62-12-1.67l-2.46-2L216,132.72l3.07-.92c6.15,6.22,12,1.76,12,1.76Z"/><path class="cls-5" d="M191,157.21a0.63,0.63,0,1,1,.62-0.64A0.63,0.63,0,0,1,191,157.21Zm1.18,0.34,0.76-1.12s-5.54-5.76-12.11.39l-2.76-1.51,0,4.79,2.87-1.43c7.12,5.08,12.12-.3,12.12-0.3Z"/><path class="cls-6" d="M121.18,218V190.72s14.75-13.07,43.13-13.07,57,25.23,95.74,5v30.31A5.07,5.07,0,0,1,255,218H121.18Z"/><path class="cls-4" d="M121.18,218s16.25-21,37.54-21,39.23,8.82,63.67,8.82c20,0,37.66-15.4,37.66-15.4V218H121.18Z"/><path class="cls-7" d="M186.35,133.53a2,2,0,0,1-2-2v0A2,2,0,1,1,186.35,133.53Z"/><path class="cls-7" d="M67,159.35a2,2,0,0,1-2-2,2,2,0,0,1,2-2,2,2,0,0,1,2,2v0.1A2,2,0,0,1,67,159.35Z"/><path class="cls-7" d="M67,149.46a2,2,0,0,1-2-2,2,2,0,0,1,2-2,2,2,0,0,1,2,2v0.1A2,2,0,0,1,67,149.46Z"/><path class="cls-7" d="M67,139.57a2,2,0,0,1-2-2,2,2,0,0,1,2-2,2,2,0,0,1,2,2v0.1A2,2,0,0,1,67,139.57Z"/><path class="cls-7" d="M67,129.68H67A2,2,0,0,1,65,127.59v-0.1a2,2,0,0,1,4,.18l-2-.09,2,0.19A2,2,0,0,1,67,129.68Z"/><path class="cls-5" d="M185.62,123.71a2,2,0,0,1-2-1.65V122a2,2,0,0,1,4-.6,2,2,0,0,1-1.67,2.33Z"/><path class="cls-7" d="M68.34,119.9a2,2,0,0,1-1.95-2.46,2,2,0,0,1,2.39-1.54,2,2,0,0,1,1.53,2.32l0,0.14A2,2,0,0,1,68.34,119.9Z"/><path class="cls-7" d="M183.43,114.08a1.94,1.94,0,0,1-1.87-1.36l0-.09a2,2,0,1,1,3.82-1.19,2,2,0,0,1-1.3,2.55A2.11,2.11,0,0,1,183.43,114.08Z"/><path class="cls-7" d="M71.25,110.46a2,2,0,0,1-1.85-2.75A2,2,0,0,1,72,106.56a2,2,0,0,1,1.13,2.56l0,0.09A2,2,0,0,1,71.25,110.46Z"/><path class="cls-7" d="M179.78,104.91a1.93,1.93,0,0,1-1.74-1.07L178,103.7A2,2,0,0,1,181.6,102a2,2,0,0,1-.92,2.69A2.06,2.06,0,0,1,179.78,104.91Z"/><path class="cls-7" d="M75.62,101.6a2,2,0,0,1-1.7-3,2,2,0,0,1,2.76-.71,2,2,0,0,1,.71,2.69l-1.72-1,1.71,1-0.05.09A2,2,0,0,1,75.62,101.6Z"/><path class="cls-7" d="M174.78,96.46a2,2,0,0,1-1.65-.86l1.65-1.14-1.67,1.1a2,2,0,1,1,3.23-2.35l0.08,0.12A2,2,0,0,1,174.78,96.46Z"/><path class="cls-7" d="M81.29,93.5a2,2,0,0,1-1.53-3.29,2,2,0,0,1,2.83-.29,2,2,0,0,1,.31,2.76l-0.09.11A2,2,0,0,1,81.29,93.5Z"/><path class="cls-7" d="M168.38,88.86a1.91,1.91,0,0,1-1.36-.57l-0.1-.1a2,2,0,0,1,2.89-2.77A2,2,0,0,1,168.38,88.86Z"/><path class="cls-7" d="M88.11,86.36a2,2,0,0,1-1.34-3.49,2,2,0,0,1,2.86.12,2,2,0,0,1-.11,2.79l-0.07.07A2,2,0,0,1,88.11,86.36Z"/><path class="cls-7" d="M161,82.41a2,2,0,0,1-1.19-.39L161,80.41,159.71,82a2,2,0,0,1,2.34-3.24l0.1,0.07A2,2,0,0,1,161,82.41Z"/><path class="cls-7" d="M96,80.35a2,2,0,0,1-1.09-3.68L95,76.62A2,2,0,1,1,97.12,80L96,78.3,97,80A2,2,0,0,1,96,80.35Z"/><path class="cls-7" d="M152.52,77.24a1.93,1.93,0,0,1-.87-0.21L151.54,77a2,2,0,1,1,1.84-3.55,2,2,0,0,1,.91,2.71A2,2,0,0,1,152.52,77.24Z"/><path class="cls-7" d="M104.66,75.68a2,2,0,0,1-.77-3.84,2,2,0,0,1,2.66,1,2,2,0,0,1-1,2.6l-0.13.05A2,2,0,0,1,104.66,75.68Z"/><path class="cls-7" d="M143.4,73.52a2,2,0,0,1-.6-0.09l0.6-1.91-0.66,1.89a2,2,0,0,1,1.14-3.83l0.12,0A2,2,0,0,1,143.4,73.52Z"/><path class="cls-7" d="M114,72.54a2,2,0,0,1-.44-4A2,2,0,0,1,116,70.07a2,2,0,0,1-1.42,2.39l-0.13,0A2,2,0,0,1,114,72.54Z"/><path class="cls-7" d="M133.75,71.43h-0.24l-0.12,0a2,2,0,0,1,.53-4,2,2,0,0,1,1.77,2.24A2,2,0,0,1,133.75,71.43Z"/><path class="cls-7" d="M123.78,71.09a2,2,0,0,1-.09-4A2,2,0,0,1,125.83,69a2,2,0,0,1-1.83,2.1h-0.22Z"/><path class="cls-7" d="M67,169.28a2,2,0,0,1-2-2,2,2,0,0,1,2-2,2,2,0,0,1,2,2v0A2,2,0,0,1,67,169.28Z"/><circle class="cls-5" cx="186.35" cy="131.55" r="2.09"/><circle class="cls-5" cx="66.99" cy="167.28" r="2.09"/><path class="cls-8" d="M227.82,146.39a1.31,1.31,0,1,1,1.35-1.27A1.31,1.31,0,0,1,227.82,146.39Zm2.42,0.83,1.69-2.24s-10.91-12.55-25.21-.45l-5.57-3.42-0.6,10,6.11-2.67c14.26,11.3,25.22.63,25.22,0.63Z"/></svg>